<svg width="69" height="69" viewBox="0 0 69 69" fill="none" xmlns="http://www.w3.org/2000/svg">
<path d="M54.1396 0H14.8604C6.65321 0 0 6.65321 0 14.8604V54.1396C0 62.3468 6.65321 69 14.8604 69H54.1396C62.3468 69 69 62.3468 69 54.1396V14.8604C69 6.65321 62.3468 0 54.1396 0Z" fill="#E14459"/>
<path d="M16.8202 4.51113C15.7377 4.51113 14.8604 5.38852 14.8604 6.46701C14.8604 7.54748 15.7397 8.42092 16.8241 8.42092C17.9085 8.42092 18.7859 7.54551 18.7859 6.46504V6.4611C18.7859 5.38063 17.9046 4.50719 16.8202 4.50916V4.51113ZM51.9314 4.51113C50.8489 4.51113 49.9716 5.38852 49.9716 6.46701C49.9716 7.54748 50.8529 8.42289 51.9353 8.42092C53.0197 8.42092 53.8971 7.54551 53.8971 6.46504V6.4611C53.8971 5.38063 53.0158 4.50719 51.9314 4.50916V4.51113Z" fill="#C73148"/>
<path d="M16.7433 6.19686C16.0611 6.23432 16.0946 7.22409 16.0946 7.22409C19.7619 14.3654 26.5109 17.8651 34.2969 17.8671C42.0712 17.8552 48.8891 14.3161 52.5505 7.18465C52.5505 7.18465 52.6944 5.84196 51.267 6.30727C47.5129 12.5318 41.2036 16.2129 34.3029 16.2247C27.3883 16.2247 21.1026 12.583 17.3407 6.34867C17.0962 6.23037 16.903 6.18897 16.7453 6.19686H16.7433ZM41.5546 33.9479L39.4686 40.1606L37.4378 33.9538H35.4563L38.6563 42.984H40.2001L42.29 37.0513L44.378 42.984H45.9336L49.1257 33.9538H47.1935L45.1588 40.1606L43.0728 33.9479H41.5526H41.5546ZM30.4759 33.9479L26.43 42.9741H28.3327L29.1135 41.2272L29.1687 41.0951H33.3722L34.1964 42.9741H36.1503L32.14 34.0011L32.1045 33.9479H30.4739H30.4759ZM59.7845 33.9479V42.9702H61.6241V33.9499H59.7845V33.9479ZM7.05066 33.9479V42.982H8.91584V39.3128H13.1234V42.98H14.9885V33.9479H13.1234V37.5915H8.91584V33.9479H7.05066ZM23.6165 33.9479V39.1176C23.6165 40.5864 22.8752 41.3692 21.5285 41.3692C20.1819 41.3692 19.4287 40.5628 19.4287 39.0545V33.9518H17.5635V39.1176C17.5635 41.659 19.0009 43.1161 21.5049 43.1161C24.0089 43.1161 25.4797 41.6314 25.4797 39.0426V33.9459H23.6165V33.9479ZM50.6301 33.9518V42.9721H57.5684V41.3278H52.4697V39.0919H55.859V37.4456H52.4697V35.5982H57.3929V33.9538H50.6321L50.6301 33.9518ZM31.2665 36.2291L32.5954 39.2536L32.6861 39.4626H29.8666L29.9554 39.2536L31.2665 36.2291Z" fill="white"/>
</svg>
