<svg width="69" height="69" viewBox="0 0 69 69" fill="none" xmlns="http://www.w3.org/2000/svg">
<path fill-rule="evenodd" clip-rule="evenodd" d="M33.1188 69C17.5071 69 9.69871 69 4.84936 64.1506C-4.80739e-07 59.3013 0 51.4929 0 35.8812V33.1188C0 17.5071 -4.80739e-07 9.69872 4.84936 4.84936C9.69871 1.44222e-06 17.5071 0 33.1188 0H35.8812C51.4929 0 59.3013 1.44222e-06 64.1506 4.84936C69 9.69872 69 17.5071 69 33.1188V35.8812C69 51.4929 69 59.3013 64.1506 64.1506C59.3013 69 51.4929 69 35.8812 69H33.1188Z" fill="#0077FF"/>
<path d="M39.8988 42.5251C38.0387 42.0614 36.7382 40.3979 36.7382 38.4924V16.0251C36.7382 13.8575 38.7848 12.2696 40.8969 12.7989L54.2705 16.141C56.1306 16.6048 57.4311 18.2683 57.4311 20.1737V42.6411C57.4311 44.8087 55.3845 46.3966 53.2723 45.8673L39.8988 42.5251Z" fill="white"/>
<path d="M14.7295 52.8691C12.8694 52.4054 11.5688 50.7419 11.5688 48.8364V26.3691C11.5688 24.2015 13.6155 22.6136 15.7276 23.1429L29.1011 26.485C30.9612 26.9488 32.2618 28.6123 32.2618 30.5177V52.9851C32.2618 55.1527 30.2152 56.7406 28.103 56.2113L14.7295 52.8691Z" fill="white"/>
<path d="M27.3168 47.6971C25.4567 47.2334 24.1561 45.5699 24.1561 43.6644V21.1971C24.1561 19.0295 26.2027 17.4416 28.3149 17.9709L41.6884 21.313C43.5485 21.7768 44.8491 23.4403 44.8491 25.3457V47.8131C44.8491 49.9807 42.8025 51.5686 40.6903 51.0393L27.3168 47.6971Z" fill="white"/>
<path d="M36.0677 49.89C35.4829 49.7387 35.0645 49.2246 35.0444 48.6197L34.4646 31.4604C34.2983 29.1869 32.6096 27.3823 30.8503 26.853C30.7495 26.8228 30.6436 26.8631 30.5882 26.9488C30.5277 27.0345 30.5529 27.1555 30.6336 27.221C31.0671 27.5587 32.2668 28.6576 32.2668 30.553V48.9322L36.0727 49.895L36.0677 49.89Z" fill="#2B71F6"/>
<path d="M48.6548 44.7129C48.0701 44.5667 47.6517 44.0526 47.6315 43.4477L47.0518 26.2884C46.8855 24.0149 45.1968 22.2103 43.4375 21.681C43.3367 21.6508 43.2308 21.6911 43.1753 21.7768C43.1149 21.8625 43.1401 21.9835 43.2207 22.049C43.6542 22.3867 44.854 23.4857 44.854 25.381V43.7652L48.6599 44.718L48.6548 44.7129Z" fill="#2B71F6"/>
</svg>
